<?xml version="1.0" encoding="UTF-8" standalone="no"?>
<!-- Created with Inkscape (http://www.inkscape.org/) -->

<svg
   xmlns:dc="http://purl.org/dc/elements/1.1/"
   xmlns:cc="http://creativecommons.org/ns#"
   xmlns:rdf="http://www.w3.org/1999/02/22-rdf-syntax-ns#"
   xmlns:svg="http://www.w3.org/2000/svg"
   xmlns="http://www.w3.org/2000/svg"
   xmlns:xlink="http://www.w3.org/1999/xlink"
   xmlns:sodipodi="http://sodipodi.sourceforge.net/DTD/sodipodi-0.dtd"
   xmlns:inkscape="http://www.inkscape.org/namespaces/inkscape"
   width="144"
   height="144"
   viewBox="0 0 144 144"
   id="svg3391"
   version="1.1"
   inkscape:version="0.91 r"
   sodipodi:docname="DronOpaco.svg">
  <defs
     id="defs3393">
    <linearGradient
       inkscape:collect="always"
       id="linearGradient8527">
      <stop
         style="stop-color:#000000;stop-opacity:1;"
         offset="0"
         id="stop8529" />
      <stop
         style="stop-color:#000000;stop-opacity:0;"
         offset="1"
         id="stop8531" />
    </linearGradient>
    <linearGradient
       inkscape:collect="always"
       id="linearGradient8519">
      <stop
         style="stop-color:#000000;stop-opacity:1"
         offset="0"
         id="stop8521" />
      <stop
         style="stop-color:#000000;stop-opacity:0"
         offset="1"
         id="stop8523" />
    </linearGradient>
    <linearGradient
       inkscape:collect="always"
       xlink:href="#linearGradient8519"
       id="linearGradient8525"
       x1="72"
       y1="967.22882"
       x2="72"
       y2="1000.1923"
       gradientUnits="userSpaceOnUse" />
    <linearGradient
       inkscape:collect="always"
       xlink:href="#linearGradient8527"
       id="linearGradient8533"
       x1="72"
       y1="83.965012"
       x2="72"
       y2="64.660187"
       gradientUnits="userSpaceOnUse" />
  </defs>
  <sodipodi:namedview
     id="base"
     pagecolor="#ffffff"
     bordercolor="#666666"
     borderopacity="1.0"
     inkscape:pageopacity="0.0"
     inkscape:pageshadow="2"
     inkscape:zoom="5.6568542"
     inkscape:cx="104.1352"
     inkscape:cy="98.132583"
     inkscape:document-units="px"
     inkscape:current-layer="layer1"
     showgrid="false"
     units="px"
     showguides="false"
     inkscape:guide-bbox="true"
     inkscape:snap-intersection-paths="true"
     inkscape:object-nodes="true"
     inkscape:snap-smooth-nodes="true"
     inkscape:snap-midpoints="true"
     inkscape:object-paths="true"
     inkscape:snap-center="true"
     inkscape:snap-object-midpoints="true"
     inkscape:window-width="1301"
     inkscape:window-height="744"
     inkscape:window-x="65"
     inkscape:window-y="24"
     inkscape:window-maximized="1"
     inkscape:snap-bbox="true"
     inkscape:snap-bbox-edge-midpoints="false"
     inkscape:bbox-nodes="false"
     inkscape:bbox-paths="false"
     inkscape:snap-bbox-midpoints="false"
     inkscape:snap-grids="true"
     inkscape:snap-to-guides="true"
     inkscape:snap-others="true"
     inkscape:snap-text-baseline="true"
     inkscape:snap-nodes="true"
     inkscape:snap-page="true">
    <sodipodi:guide
       position="72,72"
       orientation="0,1"
       id="guide3399"
       inkscape:label="Eje horizontal"
       inkscape:color="rgb(0,0,255)" />
    <sodipodi:guide
       position="72,131.78571"
       orientation="1,0"
       id="guide3401"
       inkscape:label="Eje vertical"
       inkscape:color="rgb(0,0,255)" />
    <sodipodi:guide
       position="0,144"
       orientation="0,1"
       id="guide3403"
       inkscape:label=""
       inkscape:color="rgb(0,0,255)" />
    <sodipodi:guide
       position="8.8388348,0"
       orientation="0,1"
       id="guide3513"
       inkscape:label=""
       inkscape:color="rgb(0,0,255)" />
    <sodipodi:guide
       position="0,144"
       orientation="1,0"
       id="guide3365"
       inkscape:label=""
       inkscape:color="rgb(0,0,255)" />
    <sodipodi:guide
       position="144,72"
       orientation="1,0"
       id="guide3367"
       inkscape:label=""
       inkscape:color="rgb(0,0,255)" />
  </sodipodi:namedview>
  <metadata
     id="metadata3396">
    <rdf:RDF>
      <cc:Work
         rdf:about="">
        <dc:format>image/svg+xml</dc:format>
        <dc:type
           rdf:resource="http://purl.org/dc/dcmitype/StillImage" />
        <dc:title />
      </cc:Work>
    </rdf:RDF>
  </metadata>
  <g
     inkscape:groupmode="layer"
     id="layer2"
     inkscape:label="Helices"
     style="display:inline">
    <path
       style="display:inline;fill:#cccccc;stroke:#0f0f0d;stroke-width:1;stroke-miterlimit:4;stroke-dasharray:none;stroke-opacity:1"
       d="M 34,92.346459 A 21.653543,21.653547 0 0 0 12.346457,114 21.653543,21.653547 0 0 0 34,135.65354 21.653543,21.653547 0 0 0 55.653544,114 21.653543,21.653547 0 0 0 34,92.346459 Z m 0,6.929126 A 14.724411,14.724413 0 0 1 48.724411,114 14.724411,14.724413 0 0 1 34,128.72441 14.724411,14.724413 0 0 1 19.275589,114 14.724411,14.724413 0 0 1 34,99.275585 Z"
       id="path3405"
       inkscape:connector-curvature="0" />
    <path
       inkscape:connector-curvature="0"
       style="display:inline;fill:#cccccc;stroke:#0f0f0d;stroke-width:1;stroke-miterlimit:4;stroke-dasharray:none;stroke-opacity:1"
       d="M 42.000001,10.346457 A 21.653545,21.653543 0 0 0 20.346457,32 21.653545,21.653543 0 0 0 42.000001,53.653543 21.653545,21.653543 0 0 0 63.653544,32 21.653545,21.653543 0 0 0 42.000001,10.346457 Z m 0,6.929135 A 14.724412,14.72441 0 0 1 56.724411,32 14.724412,14.72441 0 0 1 42.000001,46.72441 14.724412,14.72441 0 0 1 27.27559,32 14.724412,14.72441 0 0 1 42.000001,17.275592 Z"
       id="path3405-7" />
    <path
       inkscape:connector-curvature="0"
       style="display:inline;fill:#cccccc;stroke:#0f0f0d;stroke-width:1;stroke-miterlimit:4;stroke-dasharray:none;stroke-opacity:1"
       d="m 102.00001,10.346459 a 21.653545,21.653543 0 0 1 21.65354,21.653545 21.653545,21.653543 0 0 1 -21.65354,21.65354 21.653545,21.653543 0 0 1 -21.653553,-21.65354 21.653545,21.653543 0 0 1 21.653553,-21.653545 z m 0,6.929135 a 14.724412,14.72441 0 0 0 -14.724413,14.72441 14.724412,14.72441 0 0 0 14.724413,14.72441 14.724412,14.72441 0 0 0 14.72441,-14.72441 14.724412,14.72441 0 0 0 -14.72441,-14.72441 z"
       id="path3405-7-6" />
    <path
       style="display:inline;fill:#cccccc;stroke:#0f0f0d;stroke-width:1;stroke-miterlimit:4;stroke-dasharray:none;stroke-opacity:1"
       d="M 110,92.34646 A 21.653543,21.653547 0 0 1 131.65354,114 21.653543,21.653547 0 0 1 110,135.65354 21.653543,21.653547 0 0 1 88.346457,114 21.653543,21.653547 0 0 1 110,92.34646 Z m 0,6.929126 A 14.724411,14.724413 0 0 0 95.27559,114 14.724411,14.724413 0 0 0 110,128.72441 14.724411,14.724413 0 0 0 124.72441,114 14.724411,14.724413 0 0 0 110,99.275586 Z"
       id="path3405-5"
       inkscape:connector-curvature="0" />
    <circle
       style="fill:#cccccc;fill-opacity:1;stroke-width:1;stroke-miterlimit:4;stroke-dasharray:none"
       id="path8471"
       cx="34"
       cy="114"
       r="5" />
    <circle
       style="display:inline;fill:#cccccc;fill-opacity:1;stroke-width:1;stroke-miterlimit:4;stroke-dasharray:none"
       id="path8471-6"
       cx="110"
       cy="114"
       r="5" />
  </g>
  <g
     inkscape:label="Soporte principal"
     inkscape:groupmode="layer"
     id="layer1"
     transform="translate(0,-908.36218)"
     style="display:inline">
    <circle
       style="fill:#cccccc"
       id="path7361"
       cx="42"
       cy="940.36218"
       r="5"
       inkscape:transform-center-x="24.571961"
       inkscape:transform-center-y="4.7729708" />
    <circle
       style="display:inline;fill:#cccccc"
       id="path7361-3"
       cx="102"
       cy="940.36218"
       r="5"
       inkscape:transform-center-x="24.571961"
       inkscape:transform-center-y="4.7729708" />
    <path
       style="fill:#003ee5;fill-opacity:0.78743956;fill-rule:evenodd;stroke:url(#linearGradient8525);stroke-width:0.5;stroke-linecap:butt;stroke-linejoin:miter;stroke-miterlimit:4;stroke-dasharray:none;stroke-opacity:1"
       d="m 72,963.29965 c 0,0 5.791384,-1.17565 8.121785,-2.8491 7.649275,-5.4929 9.46541,-12.16812 17.380525,-22.27258 0.687166,-0.87724 1.35462,-1.91352 2.381623,-2.34597 1.246377,-0.52482 2.793237,-0.56116 4.056357,-0.078 1.07159,0.4099 2.0037,1.32066 2.51865,2.34592 0.52633,1.04793 0.84922,2.41935 0.38626,3.49678 -5.78368,13.45996 -15.559201,38.76548 -15.559201,38.76548 0,0 -11.720645,11.96501 -19.285999,11.96501 -7.565354,0 -19.285999,-11.96501 -19.285999,-11.96501 0,0 -10.122238,-25.28749 -15.558803,-38.76392 -0.441606,-1.09468 -0.1361,-2.46546 0.396367,-3.51893 0.515139,-1.01919 1.446576,-1.92117 2.513754,-2.32768 1.259908,-0.47992 2.801128,-0.44545 4.043918,0.0772 1.029381,0.4329 1.734964,1.44363 2.388466,2.34915 7.616599,10.55388 9.731245,16.77965 17.380512,22.27255 C 66.208616,962.124 72,963.29965 72,963.29965"
       id="path7395"
       inkscape:connector-curvature="0"
       sodipodi:nodetypes="casssssczcsssssac" />
  </g>
  <g
     inkscape:groupmode="layer"
     id="layer4"
     inkscape:label="Soporte horizontal"
     style="display:inline">
    <path
       style="fill:#8b0287;fill-opacity:0.78743956;fill-rule:evenodd;stroke:url(#linearGradient8533);stroke-width:0.5;stroke-linecap:butt;stroke-linejoin:miter;stroke-miterlimit:4;stroke-dasharray:none;stroke-opacity:1"
       d="m 50.875,67.375 c 0,0 2.201088,2.756954 -21.512928,44.75695 -0.670823,1.18809 -0.394093,3.63578 0.914933,5.20561 C 31.229346,118.47964 33.007375,119 34,119 c 2.357023,0 3.172003,-0.48274 3.780306,-1.7275 9.829717,-20.114208 10.489233,-25.000761 20.20245,-30.017819 8.445681,-4.362352 20.098187,-4.413399 28.517305,0 9.60087,5.032887 9.787095,9.987225 19.352089,29.537329 C 106.5405,118.19895 107.64298,119 110,119 c 1.14136,0 2.88281,-0.91473 4.2823,-2.41893 1.04798,-1.12639 0.70626,-3.9142 0.10857,-4.97278 C 90.676838,69.608309 93.125,67.463393 93.125,67.463393 93.125,67.463393 91.285999,72 72,64.660188 52.714001,72 50.875,67.407713 50.875,67.407713"
       id="path8501"
       inkscape:connector-curvature="0"
       sodipodi:nodetypes="cssssssssssccc" />
  </g>
</svg>
